<svg width="1167" height="1022" viewBox="0 0 1167 1022" fill="none" xmlns="http://www.w3.org/2000/svg">
<path d="M1083.39 486.763V514.764C1083.39 522.683 1076.93 529.15 1069.01 529.15H982.068L880.717 522.98L249.854 484.625L160.711 479.194L223.96 321.929L181.479 231.906L213.188 204.434L286.565 140.883C295.732 132.964 307.465 128.588 319.601 128.588C324.584 128.588 329.507 129.328 334.305 130.76L345.827 134.284C350.248 135.636 354.835 136.323 359.441 136.323C371.28 136.323 382.591 131.875 391.256 123.791L497.643 24.8482C513.507 10.0922 534.196 1.93555 555.895 1.93555C579.045 1.93555 601.535 11.5243 617.565 28.2138C667.633 80.3479 784.717 196 819.396 230.23C823.95 234.704 829.645 237.938 835.848 239.581L840.62 240.855C857.626 245.329 872.329 249.196 881.1 256.693C891.137 265.332 1048.36 441.914 1079.78 477.227C1082.11 479.847 1083.41 483.239 1083.41 486.763H1083.39Z" fill="#538EA3"/>
<path d="M983.736 523.486H1070.67C1077.58 523.486 1083.19 517.876 1083.19 510.96V482.953C1083.19 479.884 1082.08 476.935 1080.04 474.638C1055.19 446.697 891.63 262.954 881.546 254.302C872.294 246.37 855.479 242.476 837.041 237.573C830.521 235.844 824.575 232.465 819.771 227.734C789.157 197.549 668.68 78.5641 617.899 25.6975C602.12 9.27195 580.343 0 557.562 0C536.412 0 516.053 8.0049 500.564 22.4111L394.197 121.36C381.514 133.153 363.517 137.311 346.947 132.256L335.418 128.738C319.441 123.868 302.078 127.55 289.454 138.485L184.539 229.344L212.022 313.176L163.916 473.622L983.729 523.486H983.736Z" fill="#98BAC3"/>
<path d="M1011.54 564.128C977.634 566.913 955.91 569.929 955.672 569.955L955.514 569.982C894.53 575.36 839.512 604.496 800.57 652.076C778.713 678.777 745.816 694.114 710.345 694.114H279.32V587.754C279.32 583.2 283.003 579.491 287.53 579.491C288.295 579.491 289.067 579.597 289.807 579.834C313.65 586.671 373.518 603.117 414.737 608.099C431.664 610.138 448.486 611.544 464.7 612.283H465.334C471.108 612.283 475.906 608.521 477.305 602.8C478.578 597.685 476.242 592.36 471.9 589.423C452.564 576.31 431.447 560.228 409.121 541.638C388.089 524.157 368.483 504.656 350.79 483.703L636.591 245.661C639.798 242.989 643.877 241.504 648.061 241.504C652.245 241.504 656.349 242.989 659.583 245.688L1017.78 545.373C1017.84 545.4 1017.89 545.452 1017.94 545.505C1025.04 551.596 1020.85 563.363 1011.53 564.128H1011.54Z" fill="#E19624"/>
<path d="M975.624 1021.37C973.637 1021.37 971.638 1021.34 969.638 1021.3C914.033 1019.86 860.988 997.792 820.284 959.153C797.49 937.514 768.229 925.596 737.905 925.596H226.178C162.357 925.596 110.434 873.673 110.434 809.852C110.434 746.03 162.357 694.107 226.178 694.107H710.346C745.824 694.107 778.715 678.784 800.585 652.07C839.527 604.503 894.538 575.354 955.509 569.975L955.681 569.949C955.938 569.916 981.9 566.313 1021.42 563.337C1024.58 557.239 1023.13 549.808 1017.81 545.36L659.605 245.688C656.384 242.989 652.293 241.504 648.089 241.504C643.885 241.504 639.82 242.982 636.606 245.662L332.974 498.552L274.584 548.251L267.364 475.468L357.8 386.787L626.489 159.937C632.891 154.546 641.014 151.576 649.363 151.576C657.711 151.576 665.96 154.592 672.361 160.076C691.439 176.37 1139.83 559.252 1151.73 571.704C1160.11 580.488 1160.81 588.968 1158.67 593.977C1157.15 597.521 1154.07 599.718 1150.64 599.718H1150.31C1149.77 599.692 1148.81 599.685 1147.49 599.685C1137.24 599.685 1106.31 600.273 1092.52 600.543L1091.96 601.256C1120.15 618.203 1144.73 641.492 1163.14 668.727C1167.28 674.851 1167.66 682.433 1164.18 689C1160.69 695.559 1153.93 699.638 1146.52 699.638H1000.83C984.368 699.638 969.038 708.5 960.815 722.761L931.197 774.044C922.975 788.299 922.975 806.011 931.197 820.272L960.815 871.555C969.038 885.822 984.368 894.679 1000.83 894.679H1143.81C1151.4 894.679 1158.01 898.704 1161.49 905.455C1164.94 912.127 1164.36 920.086 1160 926.21C1117.59 985.788 1048.67 1021.36 975.643 1021.36H975.637L975.624 1021.37Z" fill="black"/>
<path d="M960.813 722.774C969.022 708.52 984.366 699.651 1000.81 699.651H1146.51C1153.93 699.651 1160.68 695.572 1164.15 688.999C1167.65 682.433 1167.25 674.851 1163.11 668.733C1144.7 641.498 1120.12 618.216 1091.93 601.262L1092.49 600.55C1106.29 600.286 1137.23 599.705 1147.48 599.705C1148.78 599.705 1149.76 599.705 1150.29 599.731H1150.63C1154.05 599.731 1157.12 597.534 1158.66 593.983C1160.78 588.975 1160.09 580.501 1151.72 571.731C1139.8 559.252 691.424 176.389 672.346 160.102C665.938 154.618 657.748 151.596 649.328 151.596C640.907 151.596 632.876 154.566 626.468 159.97L365.17 380.557C360.108 375.443 355.212 370.308 350.599 365.326C316.137 328.212 298.438 293.698 290.968 276.427C290.572 275.523 290.915 274.784 291.126 274.441C291.549 273.834 292.215 273.431 292.928 273.431C293.218 273.431 293.509 273.51 293.799 273.642C299.547 276.157 305.77 278.493 312.369 280.585C324.314 284.373 337.031 287.316 351.259 289.566C354.941 290.147 358.096 290.411 360.927 290.411C374.224 290.411 377.009 284.109 377.009 278.81C377.009 275.444 375.709 272.323 373.38 269.96C362.649 259.256 325.561 220.796 298.148 175.657C264.795 120.744 254.309 91.7869 251.392 77.1959C248.291 61.6745 240.53 60.876 239.019 60.876H238.675C237.138 60.876 229.403 61.6679 226.302 77.1959C223.385 91.7935 212.899 120.718 179.52 175.657C152.126 220.769 115.045 259.263 104.314 269.96C101.958 272.316 100.658 275.444 100.658 278.81C100.658 284.109 103.463 290.411 116.767 290.411C119.572 290.411 122.753 290.147 126.435 289.566C140.663 287.316 153.373 284.373 165.325 280.585C171.891 278.493 178.147 276.163 183.895 273.642C184.185 273.51 184.476 273.431 184.766 273.431C185.452 273.431 186.145 273.827 186.541 274.441C186.779 274.784 187.096 275.53 186.7 276.427C179.229 293.698 161.563 328.218 127.095 365.326C100.5 393.96 74.2482 417.513 56.8987 432.242C52.794 435.714 51.3883 441.013 53.2427 446.041C55.0707 451.05 59.6506 454.251 64.897 454.251C65.3194 454.251 65.7417 454.251 66.1707 454.198C86.9121 452.238 118.49 447.308 151.308 435.126C151.888 434.915 152.529 434.809 153.162 434.809C154.779 434.809 156.29 435.522 157.24 436.822C158.567 438.545 158.646 440.848 157.504 442.649C149.638 455.049 119.968 498.862 68.5794 541.645C46.1155 560.321 24.8989 576.482 5.47724 589.648C0.870952 592.776 -1.06263 598.233 0.573985 603.552C2.2106 608.871 6.82349 612.296 12.3603 612.296H12.9674C29.1818 611.557 46.0033 610.152 62.9568 608.112C104.176 603.13 164.044 586.685 187.861 579.848C188.627 579.61 189.399 579.505 190.164 579.505C194.691 579.505 198.374 583.213 198.374 587.767V697.513C146.503 710.282 110.399 756.266 110.399 809.858C110.399 873.673 162.322 925.596 226.163 925.596H737.877C768.207 925.596 797.455 937.514 820.262 959.16C860.979 997.812 914.011 1019.87 969.616 1021.3C971.603 1021.36 973.615 1021.38 975.602 1021.38C1048.64 1021.38 1117.57 985.808 1159.97 926.229C1164.31 920.112 1164.9 912.167 1161.46 905.488C1157.99 898.73 1151.37 894.705 1143.76 894.705H1000.8C984.346 894.705 969.009 885.829 960.8 871.581L931.182 820.298C922.946 806.044 922.946 788.325 931.182 774.07L960.8 722.788L960.813 722.774ZM800.576 652.077C778.719 678.777 745.822 694.114 710.351 694.114H279.327V587.754C279.327 583.2 283.009 579.491 287.536 579.491C288.302 579.491 289.074 579.597 289.813 579.835C313.656 586.671 373.525 603.117 414.744 608.099C431.671 610.138 448.492 611.544 464.707 612.283H465.34C471.115 612.283 475.912 608.522 477.311 602.8C478.585 597.686 476.249 592.36 471.906 589.423C452.571 576.311 431.453 560.228 409.128 541.638C388.096 524.157 368.489 504.656 350.797 483.703L636.598 245.662C639.805 242.989 643.883 241.504 648.067 241.504C652.251 241.504 656.356 242.989 659.59 245.688L1017.79 545.373C1017.84 545.4 1017.9 545.453 1017.95 545.505C1025.05 551.596 1020.86 563.363 1011.54 564.128C977.634 566.913 955.91 569.929 955.672 569.956L955.514 569.982C894.53 575.36 839.512 604.496 800.57 652.077H800.576Z" fill="black"/>
<path d="M1143.8 896.553H1000.82C983.66 896.553 967.789 887.387 959.21 872.499L929.592 821.216C921.007 806.328 921.007 788.022 929.592 773.134L959.21 721.851C967.795 706.963 983.66 697.796 1000.82 697.796H1146.52C1160.9 697.796 1169.65 681.701 1161.6 669.776C1142.87 642.072 1118.11 618.79 1089.21 601.791L1091.59 598.715C1115.78 598.24 1146.07 597.706 1150.39 597.877C1157.7 598.168 1162.68 585.88 1150.39 573.005C1139.66 561.773 765.937 242.435 671.159 161.508C658.653 150.804 640.274 150.778 627.689 161.376L365.078 383.091C359.858 377.799 354.566 372.295 349.26 366.58C314.224 328.845 296.419 293.592 289.312 277.173C287.873 273.847 291.265 270.482 294.585 271.94C300.577 274.573 306.721 276.837 312.957 278.81C325.562 282.809 338.516 285.66 351.569 287.725C358.994 288.9 375.195 290.675 375.195 278.803C375.195 275.979 374.086 273.28 372.087 271.28C361.224 260.424 324.11 221.938 296.598 176.634C264.03 123.002 252.719 93.1663 249.598 77.5656C246.476 61.965 238.874 62.7437 238.874 62.7437C238.874 62.7437 231.271 61.965 228.15 77.5656C225.029 93.1663 213.717 123.008 181.15 176.634C153.638 221.938 116.523 260.424 105.661 271.28C103.661 273.28 102.559 275.979 102.553 278.803C102.553 290.675 118.754 288.9 126.178 287.725C139.232 285.66 152.192 282.809 164.79 278.81C171.027 276.83 177.177 274.567 183.163 271.94C186.482 270.482 189.874 273.847 188.436 277.173C181.328 293.592 163.523 328.845 128.488 366.58C102.203 394.884 76.268 418.259 58.1266 433.648C50.1877 440.386 55.6584 453.34 66.0259 452.357C88.041 450.265 118.794 445.243 150.694 433.391C153.611 432.309 156.885 433.219 158.765 435.701C160.521 438.023 160.673 441.185 159.109 443.646C150.668 456.957 121.117 500.353 69.7941 543.07C43.4366 565.006 22.2134 580.561 6.55993 591.172C-2.24349 597.138 2.31001 610.917 12.9348 610.436C26.6019 609.815 43.463 608.581 62.7725 606.258C103.424 601.362 161.794 585.405 187.4 578.053C193.854 576.199 200.262 581.049 200.262 587.761V695.969C149.863 707.709 112.307 755.89 112.307 809.865C112.307 872.763 163.292 923.755 226.197 923.755H737.93C769.191 923.755 798.907 936.3 821.582 957.82C860.485 994.75 912.507 1017.97 969.709 1019.45C1047.59 1021.46 1116.79 983.762 1158.5 925.161C1167.03 913.176 1158.53 896.559 1143.82 896.559L1143.8 896.553ZM802.029 653.252C779.624 680.619 745.724 695.969 710.358 695.969H277.486V587.734C277.486 581.029 283.887 576.192 290.335 578.04C315.927 585.391 374.317 601.355 414.975 606.252C434.291 608.581 451.159 609.809 464.826 610.429C475.444 610.911 480.004 597.138 471.207 591.179C455.547 580.561 434.324 565.006 407.954 543.064C382.837 522.157 362.947 501.106 348.184 483.479L635.417 244.243C642.769 238.119 653.453 238.132 660.798 244.269L1019.01 543.942C1019.07 543.994 1019.13 544.047 1019.19 544.1C1027.51 551.273 1022.56 565.072 1011.61 565.976C977.424 568.788 955.943 571.79 955.943 571.79L955.963 571.804C894.002 577.189 839.262 607.769 802.029 653.245V653.252Z" fill="#2A4F3D"/>
<path d="M717.283 413.962V511.796C717.283 521.325 709.549 529.06 700.02 529.06H602.185C592.656 529.06 584.922 521.325 584.922 511.796V413.962C584.922 404.433 592.656 396.698 602.185 396.698H700.02C709.549 396.698 717.283 404.433 717.283 413.962Z" fill="#D86C00"/>
<path d="M715.418 413.962V511.789C715.418 520.296 708.515 527.198 700.009 527.198H602.175C593.668 527.198 586.765 520.296 586.765 511.789V413.955C586.765 405.449 593.668 398.546 602.175 398.546H700.002C708.509 398.546 715.411 405.449 715.411 413.955L715.418 413.962Z" fill="white"/>
<path d="M700.015 400.405H602.188C594.702 400.405 588.633 406.474 588.633 413.96V511.787C588.633 519.274 594.702 525.342 602.188 525.342H700.015C707.501 525.342 713.57 519.274 713.57 511.787V413.96C713.57 406.474 707.501 400.405 700.015 400.405Z" fill="#F6E9C3"/>
</svg>
