<svg width="1710" height="526" viewBox="0 0 1710 526" fill="none" xmlns="http://www.w3.org/2000/svg">
<path d="M556.957 250.239V264.634C556.957 268.705 553.636 272.03 549.561 272.03H504.867L452.764 268.857L128.444 249.14L82.6172 246.348L115.133 165.5L93.2937 119.22L109.595 105.097L147.317 72.4262C152.03 68.3551 158.062 66.1058 164.301 66.1058C166.862 66.1058 169.393 66.4858 171.86 67.222L177.783 69.0336C180.056 69.7291 182.414 70.0819 184.782 70.0819C190.868 70.0819 196.683 67.7953 201.138 63.6394L255.83 12.7742C263.986 5.18837 274.621 0.995117 285.776 0.995117C297.678 0.995117 309.24 5.92456 317.48 14.5044C343.22 41.3059 403.411 100.761 421.24 118.359C423.58 120.659 426.508 122.321 429.697 123.166L432.15 123.821C440.893 126.121 448.452 128.109 452.96 131.963C458.12 136.404 538.946 227.183 555.098 245.337C556.296 246.683 556.964 248.427 556.964 250.239H556.957Z" fill="#538EA3"/>
<path d="M505.729 269.118H550.42C553.975 269.118 556.859 266.234 556.859 262.678V248.28C556.859 246.703 556.286 245.186 555.237 244.006C542.461 229.641 458.379 135.181 453.195 130.734C448.438 126.656 439.794 124.654 430.315 122.133C426.963 121.245 423.906 119.508 421.437 117.075C405.698 101.557 343.763 40.3888 317.657 13.2108C309.545 4.7666 298.349 0 286.638 0C275.765 0 265.299 4.11522 257.336 11.5213L202.654 62.3898C196.134 68.4524 186.882 70.5897 178.363 67.991L172.436 66.1827C164.223 63.679 155.297 65.5721 148.807 71.1936L94.8714 117.903L109 161L84.2695 243.483L505.726 269.118H505.729Z" fill="#98BAC3"/>
<path d="M520.02 290.011C502.589 291.443 491.42 292.994 491.298 293.007L491.217 293.021C459.866 295.786 431.582 310.764 411.562 335.225C400.326 348.951 383.413 356.835 365.178 356.835H143.594V302.157C143.594 299.816 145.487 297.909 147.814 297.909C148.208 297.909 148.605 297.964 148.985 298.086C161.242 301.601 192.02 310.055 213.21 312.616C221.912 313.665 230.56 314.387 238.895 314.767H239.221C242.19 314.767 244.656 312.833 245.375 309.892C246.03 307.263 244.829 304.525 242.597 303.015C232.656 296.274 221.8 288.006 210.323 278.45C199.511 269.463 189.431 259.437 180.336 248.666L327.262 126.292C328.911 124.918 331.008 124.154 333.159 124.154C335.31 124.154 337.42 124.918 339.082 126.305L523.229 280.37C523.256 280.383 523.284 280.41 523.311 280.438C526.961 283.569 524.807 289.618 520.016 290.011H520.02Z" fill="#E19624"/>
<path d="M501.557 525.075C500.536 525.075 499.508 525.061 498.48 525.037C469.894 524.298 442.624 512.953 421.699 493.089C409.981 481.965 394.938 475.838 379.349 475.838H116.276C83.4664 475.838 56.7734 449.145 56.7734 416.335C56.7734 383.525 83.4664 356.832 116.276 356.832H365.181C383.42 356.832 400.329 348.955 411.572 335.222C431.592 310.768 459.872 295.783 491.217 293.018L491.305 293.004C491.437 292.987 504.784 291.135 525.099 289.605C526.724 286.47 525.981 282.65 523.246 280.363L339.096 126.306C337.44 124.918 335.337 124.155 333.176 124.155C331.014 124.155 328.925 124.915 327.272 126.292L171.179 256.3L141.161 281.849L137.45 244.432L183.942 198.843L322.072 82.2222C325.362 79.4505 329.539 77.9238 333.83 77.9238C338.122 77.9238 342.363 79.4742 345.654 82.2935C355.462 90.6698 585.975 287.505 592.092 293.907C596.401 298.422 596.76 302.782 595.658 305.357C594.878 307.178 593.297 308.308 591.532 308.308H591.363C591.085 308.295 590.589 308.291 589.914 308.291C584.642 308.291 568.741 308.593 561.65 308.732L561.365 309.099C575.855 317.811 588.493 329.783 597.955 343.785C600.085 346.933 600.282 350.831 598.491 354.207C596.699 357.579 593.222 359.675 589.415 359.675H514.514C506.052 359.675 498.171 364.232 493.944 371.563L478.718 397.927C474.491 405.255 474.491 414.361 478.718 421.692L493.944 448.056C498.171 455.391 506.052 459.944 514.514 459.944H588.018C591.923 459.944 595.319 462.013 597.11 465.484C598.881 468.914 598.586 473.005 596.343 476.153C574.539 506.782 539.11 525.068 501.567 525.068H501.564L501.557 525.075Z" fill="black"/>
<path d="M493.942 371.57C498.163 364.242 506.051 359.682 514.505 359.682H589.407C593.22 359.682 596.694 357.586 598.475 354.206C600.273 350.831 600.07 346.933 597.943 343.788C588.477 329.787 575.84 317.818 561.35 309.102L561.635 308.736C568.729 308.6 584.637 308.301 589.905 308.301C590.574 308.301 591.076 308.301 591.351 308.315H591.527C593.285 308.315 594.862 307.185 595.653 305.36C596.742 302.785 596.389 298.429 592.083 293.92C585.956 287.505 355.453 90.6799 345.645 82.307C342.351 79.4877 338.141 77.9339 333.812 77.9339C329.483 77.9339 325.354 79.4606 322.06 82.2391L187.73 195.64C185.127 193.011 182.61 190.371 180.239 187.81C162.522 168.73 153.424 150.987 149.583 142.108C149.38 141.643 149.556 141.263 149.665 141.087C149.882 140.775 150.224 140.568 150.591 140.568C150.74 140.568 150.889 140.609 151.039 140.677C153.994 141.969 157.193 143.17 160.585 144.246C166.726 146.193 173.263 147.706 180.578 148.863C182.471 149.161 184.093 149.297 185.548 149.297C192.384 149.297 193.816 146.057 193.816 143.333C193.816 141.603 193.148 139.998 191.95 138.783C186.434 133.281 167.367 113.509 153.274 90.3033C136.128 62.0735 130.737 47.1868 129.238 39.6858C127.643 31.7064 123.653 31.2959 122.877 31.2959H122.7C121.91 31.2959 117.934 31.703 116.339 39.6858C114.839 47.1902 109.449 62.0599 92.2889 90.3033C78.2062 113.495 59.1431 133.284 53.6268 138.783C52.4156 139.995 51.7473 141.603 51.7473 143.333C51.7473 146.057 53.1891 149.297 60.0286 149.297C61.4705 149.297 63.1057 149.161 64.9988 148.863C72.3132 147.706 78.8474 146.193 84.9914 144.246C88.367 143.17 91.5832 141.973 94.5382 140.677C94.6874 140.609 94.8367 140.568 94.986 140.568C95.3388 140.568 95.695 140.772 95.8986 141.087C96.0207 141.263 96.1836 141.647 95.98 142.108C92.1396 150.987 83.0576 168.733 65.338 187.81C51.6659 202.53 38.1701 214.639 29.2509 222.211C27.1407 223.995 26.4181 226.72 27.3714 229.305C28.3112 231.88 30.6656 233.525 33.3628 233.525C33.5799 233.525 33.797 233.525 34.0175 233.498C44.6805 232.49 60.9141 229.956 77.7855 223.693C78.084 223.585 78.4131 223.531 78.7388 223.531C79.57 223.531 80.3469 223.897 80.8354 224.565C81.5174 225.451 81.5581 226.635 80.9711 227.561C76.9272 233.936 61.674 256.459 35.2558 278.453C23.7074 288.054 12.8002 296.363 2.81578 303.131C0.447746 304.739 -0.546287 307.545 0.295079 310.279C1.13644 313.014 3.50787 314.774 6.35427 314.774H6.66638C15.002 314.394 23.6497 313.672 32.3653 312.623C53.5555 310.062 84.3332 301.608 96.5771 298.093C96.9706 297.971 97.3676 297.917 97.7611 297.917C100.088 297.917 101.982 299.823 101.982 302.164V358.583C75.3157 365.148 56.7548 388.787 56.7548 416.338C56.7548 449.145 83.4478 475.838 116.268 475.838H379.333C394.926 475.838 409.962 481.965 421.687 493.093C442.619 512.963 469.882 524.304 498.468 525.041C499.489 525.068 500.524 525.081 501.545 525.081C539.091 525.081 574.527 506.792 596.328 476.164C598.56 473.019 598.862 468.934 597.091 465.501C595.307 462.027 591.904 459.957 587.995 459.957H514.498C506.04 459.957 498.156 455.394 493.936 448.069L478.71 421.706C474.476 414.378 474.476 405.268 478.71 397.94L493.936 371.577L493.942 371.57ZM411.567 335.225C400.33 348.951 383.418 356.836 365.183 356.836H143.599V302.157C143.599 299.816 145.492 297.91 147.819 297.91C148.212 297.91 148.609 297.964 148.989 298.086C161.247 301.601 192.025 310.055 213.215 312.617C221.917 313.665 230.565 314.388 238.9 314.768H239.226C242.194 314.768 244.661 312.834 245.38 309.892C246.035 307.263 244.834 304.525 242.601 303.016C232.661 296.275 221.805 288.007 210.328 278.45C199.515 269.463 189.436 259.438 180.34 248.666L327.267 126.292C328.916 124.918 331.013 124.155 333.164 124.155C335.314 124.155 337.425 124.918 339.087 126.306L523.234 280.37C523.261 280.384 523.288 280.411 523.315 280.438C526.966 283.569 524.812 289.618 520.021 290.012C502.59 291.443 491.422 292.994 491.3 293.007L491.218 293.021C459.867 295.786 431.583 310.764 411.563 335.225H411.567Z" fill="black"/>
<path d="M588.014 460.907H514.51C505.685 460.907 497.526 456.195 493.116 448.541L477.89 422.177C473.476 414.524 473.476 405.113 477.89 397.459L493.116 371.095C497.53 363.441 505.685 358.729 514.51 358.729H589.408C596.804 358.729 601.302 350.455 597.16 344.324C587.532 330.082 574.803 318.113 559.947 309.374L561.171 307.793C573.605 307.548 589.181 307.274 591.399 307.362C595.159 307.511 597.72 301.194 591.399 294.575C585.883 288.801 393.757 124.633 345.032 83.0298C338.603 77.527 329.155 77.5135 322.685 82.962L187.68 196.943C184.996 194.222 182.275 191.393 179.548 188.455C161.536 169.056 152.383 150.933 148.729 142.492C147.99 140.782 149.734 139.052 151.44 139.801C154.521 141.155 157.679 142.319 160.885 143.333C167.365 145.389 174.025 146.855 180.735 147.917C184.552 148.52 192.881 149.433 192.881 143.33C192.881 141.878 192.311 140.49 191.283 139.462C185.699 133.881 166.619 114.096 152.475 90.8056C135.732 63.234 129.917 47.8961 128.313 39.876C126.708 31.8559 122.8 32.2562 122.8 32.2562C122.8 32.2562 118.891 31.8559 117.287 39.876C115.682 47.8961 109.867 63.2374 93.1246 90.8056C78.9809 114.096 59.9009 133.881 54.3167 139.462C53.2887 140.49 52.7221 141.878 52.7188 143.33C52.7188 149.433 61.0476 148.52 64.8643 147.917C71.5748 146.855 78.2379 145.389 84.7144 143.333C87.9204 142.315 91.0823 141.152 94.1594 139.801C95.8659 139.052 97.6097 140.782 96.8701 142.492C93.2162 150.933 84.063 169.056 66.0517 188.455C52.5389 203.006 39.206 215.022 29.8798 222.934C25.7985 226.397 28.6109 233.057 33.9407 232.552C45.2584 231.476 61.068 228.894 77.4678 222.801C78.9673 222.245 80.65 222.713 81.6169 223.989C82.5194 225.183 82.5974 226.808 81.7934 228.073C77.4542 234.916 62.2621 257.226 35.8779 279.186C22.3278 290.463 11.4172 298.46 3.36997 303.915C-1.15576 306.982 1.18513 314.066 6.64722 313.818C13.6733 313.499 22.3414 312.865 32.2682 311.67C53.1666 309.153 83.1741 300.95 96.3374 297.17C99.6554 296.217 102.95 298.711 102.95 302.161V357.789C77.0403 363.825 57.733 388.594 57.733 416.342C57.733 448.677 83.9443 474.892 116.283 474.892H379.358C395.429 474.892 410.706 481.341 422.363 492.404C442.362 511.389 469.106 523.328 498.513 524.088C538.549 525.122 574.124 505.74 595.569 475.614C599.952 469.453 595.583 460.911 588.02 460.911L588.014 460.907ZM412.311 335.829C400.793 349.898 383.365 357.789 365.184 357.789H142.65V302.147C142.65 298.7 145.941 296.214 149.255 297.164C162.412 300.943 192.43 309.15 213.331 311.667C223.261 312.865 231.933 313.496 238.959 313.814C244.418 314.062 246.762 306.982 242.24 303.918C234.189 298.46 223.278 290.463 209.722 279.183C196.809 268.435 186.584 257.613 178.995 248.551L326.658 125.563C330.437 122.414 335.93 122.421 339.706 125.576L523.856 279.634C523.887 279.661 523.921 279.688 523.951 279.716C528.229 283.403 525.681 290.497 520.053 290.962C502.479 292.407 491.436 293.951 491.436 293.951L491.447 293.958C459.593 296.726 431.452 312.447 412.311 335.826V335.829Z" fill="#2A4F3D"/>
<path d="M368.746 212.813V263.108C368.746 268.007 364.77 271.983 359.871 271.983H309.576C304.677 271.983 300.701 268.007 300.701 263.108V212.813C300.701 207.914 304.677 203.938 309.576 203.938H359.871C364.77 203.938 368.746 207.914 368.746 212.813Z" fill="#D86C00"/>
<path d="M367.789 212.813V263.105C367.789 267.478 364.24 271.026 359.867 271.026H309.572C305.199 271.026 301.65 267.478 301.65 263.105V212.809C301.65 208.436 305.199 204.888 309.572 204.888H359.864C364.237 204.888 367.786 208.436 367.786 212.809L367.789 212.813Z" fill="white"/>
<path d="M359.87 205.844H309.578C305.729 205.844 302.609 208.964 302.609 212.812V263.104C302.609 266.952 305.729 270.072 309.578 270.072H359.87C363.718 270.072 366.838 266.952 366.838 263.104V212.812C366.838 208.964 363.718 205.844 359.87 205.844Z" fill="#F6E9C3"/>
<path d="M874.603 269.776C869.275 269.776 864.96 267.555 861.775 263.177L806.092 187.049H762.742V258.818C762.742 265.579 758.54 269.781 751.779 269.781H721.599C714.838 269.781 710.641 265.583 710.641 258.818V18.0914C710.641 11.3304 714.838 7.12793 721.599 7.12793H825.959C879.451 7.12793 916.807 44.4849 916.807 97.9763C916.807 138.063 895.091 172.201 863.752 181.829L919.019 255.863C921.563 259.385 922.189 262.814 920.799 265.535C919.42 268.23 916.171 269.781 911.881 269.781H874.598L874.603 269.776ZM768.677 53.8975C765.404 53.8975 762.738 56.5588 762.738 59.8366V135.04C762.738 138.313 765.399 140.979 768.677 140.979H814.243C847.73 140.979 864.706 126.39 864.706 97.6143C864.706 68.8383 846.311 53.8975 814.243 53.8975H768.677Z" fill="black"/>
<path d="M761.364 258.811C761.364 264.848 757.812 268.4 751.775 268.4H721.596C715.559 268.4 712.012 264.848 712.012 258.811V18.0848C712.012 12.0478 715.563 8.49609 721.596 8.49609H825.956C878.86 8.49609 915.429 45.4225 915.429 97.9698C915.429 137.029 894.124 172.18 861.458 181.054L917.914 256.683C922.528 263.077 919.69 268.4 911.877 268.4H874.594C869.624 268.4 865.72 266.267 862.877 262.363L806.778 185.668H761.354V258.811H761.364ZM814.244 142.352C856.141 142.352 866.082 119.628 866.082 97.6127C866.082 72.4031 850.813 52.5211 814.244 52.5211H768.678C764.642 52.5211 761.364 55.794 761.364 59.8349V135.043C761.364 139.079 764.637 142.357 768.678 142.357H814.244V142.352Z" fill="#2C5240"/>
<path d="M976.956 269.775C970.195 269.775 965.993 265.577 965.993 258.811V226.146C965.993 220.936 967.778 217.007 971.775 213.407L1058.8 140.586C1090.25 115.142 1092.75 101.013 1092.75 85.1865C1092.75 59.2089 1073.41 49.9919 1056.85 49.9919C1029.26 49.9919 1018.51 70.4756 1015.17 79.2816C1013.01 84.8343 1008.09 88.1463 1001.99 88.1463C1000.55 88.1463 999.059 87.9604 997.572 87.5837L973.781 81.5467C969.486 80.3775 966.599 78.3619 965.171 75.5537C963.752 72.7554 963.821 69.2624 965.381 65.1676C976.056 36.4258 1005.58 2.85547 1053.66 2.85547C1115.05 2.85547 1147.18 44.273 1147.18 85.1816C1147.18 126.09 1122.26 151.315 1089.7 178.902C1075.74 190.531 1053.77 208.646 1035.91 222.99H1141.38C1148.14 222.99 1152.35 227.188 1152.35 233.949V258.801C1152.35 265.562 1148.14 269.765 1141.38 269.765H976.966L976.956 269.775Z" fill="black"/>
<path d="M1150.96 233.958V258.81C1150.96 264.847 1147.41 268.399 1141.38 268.399H976.959C970.922 268.399 967.37 264.847 967.37 258.81V226.145C967.37 221.175 969.146 217.623 972.698 214.428L1059.69 141.642C1091.28 116.08 1094.13 101.521 1094.13 85.1858C1094.13 59.9762 1076.02 48.6165 1056.84 48.6165C1029.15 48.6165 1017.79 68.4984 1013.88 78.7965C1011.39 85.1858 1005.01 88.0281 997.902 86.2523L974.116 80.2153C966.304 78.0872 963.818 73.1167 966.661 65.661C975.892 40.8085 1003.23 4.23438 1053.65 4.23438C1115.43 4.23438 1145.8 46.4884 1145.8 85.1858C1145.8 123.883 1123.59 148.383 1088.8 177.854C1076.02 188.504 1051.52 208.744 1031.99 224.369H1141.38C1147.41 224.369 1150.96 227.921 1150.96 233.953V233.958Z" fill="#2C5240"/>
<path d="M1365.99 269.776C1360.66 269.776 1356.35 267.555 1353.16 263.177L1297.47 187.049H1258.05V258.818C1258.05 265.579 1253.85 269.781 1247.09 269.781H1216.91C1210.15 269.781 1205.95 265.583 1205.95 258.818V18.0914C1205.95 11.3304 1210.14 7.12793 1216.91 7.12793H1317.34C1370.83 7.12793 1408.18 44.4849 1408.18 97.9763C1408.18 138.063 1386.47 172.201 1355.13 181.829L1410.4 255.863C1412.94 259.385 1413.57 262.814 1412.18 265.535C1410.8 268.23 1407.55 269.781 1403.26 269.781H1365.98L1365.99 269.776ZM1263.99 53.8975C1260.72 53.8975 1258.05 56.5588 1258.05 59.8366V135.04C1258.05 138.313 1260.71 140.979 1263.99 140.979H1305.63C1339.11 140.979 1356.09 126.39 1356.09 97.6143C1356.09 68.8383 1337.7 53.8975 1305.63 53.8975H1263.99Z" fill="black"/>
<path d="M1256.67 258.811C1256.67 264.848 1253.12 268.4 1247.08 268.4H1216.9C1210.86 268.4 1207.31 264.848 1207.31 258.811V18.0848C1207.31 12.0478 1210.86 8.49609 1216.9 8.49609H1317.33C1370.23 8.49609 1406.8 45.4225 1406.8 97.9698C1406.8 137.029 1385.5 172.18 1352.84 181.054L1409.29 256.683C1413.9 263.077 1411.06 268.4 1403.25 268.4H1365.97C1361 268.4 1357.09 266.267 1354.25 262.363L1298.16 185.668H1256.66V258.811H1256.67ZM1305.62 142.352C1347.51 142.352 1357.45 119.628 1357.45 97.6127C1357.45 72.4031 1342.19 52.5211 1305.62 52.5211H1263.98C1259.94 52.5211 1256.66 55.794 1256.66 59.8349V135.043C1256.66 139.079 1259.94 142.357 1263.98 142.357H1305.62V142.352Z" fill="#2C5240"/>
<path d="M1576.17 274.744C1499.2 274.744 1443.34 217.422 1443.34 138.447C1443.34 101.359 1456.24 67.1874 1479.65 42.2176C1503.89 16.3818 1538.16 2.15039 1576.17 2.15039C1653.33 2.15039 1709.34 59.4724 1709.34 138.447C1709.34 217.422 1653.33 274.744 1576.17 274.744ZM1576.17 51.4149C1530.26 51.4149 1494.3 89.6426 1494.3 138.447C1494.3 187.252 1530.26 225.837 1576.17 225.837C1622.08 225.837 1658.03 187.453 1658.03 138.447C1658.03 89.4421 1622.08 51.4149 1576.17 51.4149Z" fill="black"/>
<path d="M1444.7 138.447C1444.7 64.2367 1496.73 3.52441 1576.16 3.52441C1655.59 3.52441 1707.96 64.2367 1707.96 138.447C1707.96 212.657 1655.93 273.369 1576.16 273.369C1496.38 273.369 1444.7 213.009 1444.7 138.447ZM1492.92 138.447C1492.92 189.218 1530.38 227.211 1576.16 227.211C1621.94 227.211 1659.4 189.218 1659.4 138.447C1659.4 87.6753 1622.28 50.0396 1576.16 50.0396C1530.03 50.0396 1492.92 88.0325 1492.92 138.447Z" fill="#2C5240"/>
<path d="M809.339 495.783C805.941 495.783 803.074 494.309 801.046 491.515L766.623 444.458H745.157V488.572C745.157 493.02 742.394 495.787 737.941 495.787H719.215C714.767 495.787 712 493.024 712 488.572V339.218C712 334.77 714.763 332.003 719.215 332.003H779.161C812.593 332.003 835.938 355.353 835.938 388.78C835.938 413.595 822.603 434.764 803.286 441.024L837.227 486.489C838.904 488.815 839.305 491.095 838.368 492.925C837.439 494.741 835.289 495.783 832.468 495.783H809.339ZM749.38 361.847C747.05 361.847 745.157 363.74 745.157 366.07V410.819C745.157 413.149 747.05 415.042 749.38 415.042H771.892C792.393 415.042 802.786 406.127 802.786 388.551C802.786 370.974 791.523 361.843 771.892 361.843H749.38V361.847Z" fill="black"/>
<path d="M743.89 488.948C743.89 492.693 741.686 494.897 737.941 494.897H719.215C715.469 494.897 713.266 492.693 713.266 488.948V339.595C713.266 335.85 715.469 333.65 719.215 333.65H779.16C811.984 333.65 834.671 356.559 834.671 389.161C834.671 413.395 821.453 435.204 801.19 440.711L836.217 487.632C839.079 491.598 837.317 494.902 832.472 494.902H809.343C806.26 494.902 803.835 493.581 802.073 491.156L767.267 443.577H743.89V488.957V488.948ZM771.891 416.694C797.886 416.694 804.052 402.596 804.052 388.936C804.052 373.297 794.578 360.962 771.891 360.962H749.379C746.346 360.962 743.89 363.418 743.89 366.451V411.205C743.89 414.238 746.346 416.694 749.379 416.694H771.891Z" fill="#E19624"/>
<path d="M892.454 495.784C888.474 495.784 885.238 492.548 885.238 488.568V339.211C885.238 335.236 888.474 331.995 892.454 331.995H986.399C990.379 331.995 993.615 335.231 993.615 339.211V354.629C993.615 358.608 990.379 361.844 986.399 361.844H924.322C922.05 361.844 920.207 363.692 920.207 365.959V395.506C920.207 397.777 922.055 399.621 924.322 399.621H978.3C982.28 399.621 985.516 402.857 985.516 406.836V422.254C985.516 426.234 982.28 429.47 978.3 429.47H924.322C922.05 429.47 920.207 431.317 920.207 433.584V461.811C920.207 464.082 922.055 465.926 924.322 465.926H988.211C992.19 465.926 995.426 469.162 995.426 473.141V488.559C995.426 492.539 992.19 495.775 988.211 495.775H892.458L892.454 495.784Z" fill="black"/>
<path d="M986.397 360.581H924.32C921.345 360.581 918.939 362.992 918.939 365.962V395.509C918.939 398.483 921.35 400.89 924.32 400.89H978.298C981.584 400.89 984.247 403.554 984.247 406.839V422.257C984.247 425.543 981.584 428.206 978.298 428.206H924.324C921.35 428.206 918.943 430.617 918.943 433.588V461.814C918.943 464.789 921.354 467.195 924.324 467.195H988.213C991.499 467.195 994.162 469.859 994.162 473.144V488.562C994.162 491.848 991.499 494.511 988.213 494.511H892.461C889.175 494.511 886.512 491.848 886.512 488.562V339.209C886.512 335.924 889.175 333.265 892.456 333.265H986.402C989.687 333.265 992.351 335.928 992.351 339.214V354.632C992.351 357.917 989.687 360.581 986.402 360.581H986.397Z" fill="#E19624"/>
<path d="M1046.69 495.783C1042.24 495.783 1039.48 493.02 1039.48 488.568V339.215C1039.48 334.766 1042.24 331.999 1046.69 331.999H1100.47C1138.38 331.999 1163.86 355.525 1163.86 390.539C1163.86 425.553 1140.08 447.758 1100.25 447.758H1072.85V488.568C1072.85 493.016 1070.09 495.783 1065.64 495.783H1046.7H1046.69ZM1077.07 361.848C1074.74 361.848 1072.85 363.741 1072.85 366.071V413.686C1072.85 416.016 1074.74 417.909 1077.07 417.909H1102.23C1118.86 417.909 1130.48 406.655 1130.48 390.539C1130.48 374.422 1118.41 361.843 1101.13 361.843H1077.07V361.848Z" fill="black"/>
<path d="M1162.59 390.539C1162.59 423.8 1141.67 446.492 1100.25 446.492H1071.59V488.568C1071.59 492.313 1069.39 494.517 1065.64 494.517H1046.7C1042.95 494.517 1040.75 492.313 1040.75 488.568V339.215C1040.75 335.47 1042.95 333.271 1046.7 333.271H1100.47C1139.25 333.271 1162.59 357.499 1162.59 390.544V390.539ZM1131.76 390.539C1131.76 374.238 1120.3 360.578 1101.14 360.578H1077.08C1074.05 360.578 1071.59 363.034 1071.59 366.067V413.682C1071.59 416.715 1074.05 419.171 1077.08 419.171H1102.24C1120.74 419.171 1131.76 406.394 1131.76 390.535V390.539Z" fill="#E19624"/>
<path d="M1375.9 495.783C1371.45 495.783 1368.69 493.02 1368.69 488.568V339.215C1368.69 334.766 1371.45 331.999 1375.9 331.999H1394.85C1399.3 331.999 1402.07 334.762 1402.07 339.215V488.568C1402.07 493.016 1399.3 495.783 1394.85 495.783H1375.9Z" fill="black"/>
<path d="M1400.8 339.209V488.562C1400.8 492.307 1398.6 494.511 1394.86 494.511H1375.91C1372.16 494.511 1369.96 492.307 1369.96 488.562V339.209C1369.96 335.464 1372.17 333.265 1375.91 333.265H1394.86C1398.6 333.265 1400.8 335.468 1400.8 339.209Z" fill="#E19624"/>
<path d="M1298.35 495.78C1294.7 495.78 1292.02 494.121 1290.19 490.709L1290.13 490.597L1281.8 463.006C1281.46 461.883 1280.44 461.126 1279.27 461.117L1226.19 460.743L1215.64 490.534C1214.06 493.959 1211.15 495.784 1207.39 495.784H1184.08C1181.41 495.784 1179.37 494.851 1178.33 493.166C1177.29 491.48 1177.36 489.254 1178.54 486.901L1234.66 336.282C1235.33 334.506 1237.05 333.312 1238.94 333.312H1268.78C1270.68 333.312 1272.4 334.51 1273.06 336.295L1328.7 487.032C1329.83 489.258 1329.9 491.48 1328.86 493.166C1327.81 494.851 1325.77 495.784 1323.11 495.784H1298.35V495.78ZM1236.66 425.639C1236.34 426.464 1236.44 427.361 1236.94 428.096C1237.44 428.83 1238.24 429.254 1239.13 429.258L1269.14 429.402C1270.05 429.402 1270.85 428.979 1271.36 428.231C1271.86 427.483 1271.96 426.586 1271.62 425.752L1253.78 381.404L1236.66 425.639Z" fill="black"/>
<path d="M1207.39 494.516H1184.07C1179.44 494.516 1177.68 491.433 1179.66 487.467L1235.84 336.721C1236.33 335.432 1237.56 334.576 1238.94 334.576H1268.78C1270.16 334.576 1271.39 335.437 1271.87 336.73L1327.51 487.467C1329.5 491.433 1327.73 494.516 1323.11 494.516H1298.35C1295.04 494.516 1292.84 492.975 1291.3 490.108L1283 462.639C1282.5 460.994 1280.99 459.863 1279.27 459.849L1225.48 459.471C1225.33 459.471 1225.19 459.592 1225.18 459.754L1214.43 490.113C1213.11 492.975 1210.69 494.52 1207.38 494.52L1207.39 494.516ZM1239.12 430.527L1269.13 430.672C1271.92 430.685 1273.83 427.868 1272.79 425.281L1253.75 377.959L1235.47 425.187C1234.48 427.751 1236.37 430.514 1239.12 430.527Z" fill="#E19624"/>
<path d="M1552.57 495.783C1549.18 495.783 1546.3 494.309 1544.28 491.515L1509.85 444.458H1488.39V488.572C1488.39 493.02 1485.62 495.787 1481.17 495.787H1462.45C1458 495.787 1455.23 493.024 1455.23 488.572V339.218C1455.23 334.77 1458 332.003 1462.45 332.003H1522.4C1555.83 332.003 1579.18 355.353 1579.18 388.78C1579.18 413.595 1565.84 434.764 1546.53 441.024L1580.46 486.489C1582.14 488.815 1582.54 491.095 1581.61 492.925C1580.68 494.741 1578.53 495.783 1575.71 495.783H1552.57H1552.57ZM1492.61 361.847C1490.28 361.847 1488.39 363.74 1488.39 366.07V410.819C1488.39 413.149 1490.28 415.042 1492.61 415.042H1515.12C1535.62 415.042 1546.02 406.127 1546.02 388.551C1546.02 370.974 1534.75 361.843 1515.12 361.843H1492.61V361.847Z" fill="black"/>
<path d="M1487.12 488.568C1487.12 492.313 1484.92 494.517 1481.17 494.517H1462.45C1458.71 494.517 1456.5 492.313 1456.5 488.568V339.215C1456.5 335.47 1458.71 333.271 1462.45 333.271H1522.4C1555.22 333.271 1577.91 356.179 1577.91 388.782C1577.91 413.015 1564.7 434.824 1544.43 440.331L1579.45 487.252C1582.31 491.218 1580.56 494.522 1575.71 494.522H1552.57C1549.49 494.522 1547.06 493.201 1545.3 490.777L1510.5 443.198H1487.12V488.577L1487.12 488.568ZM1515.12 416.314C1541.12 416.314 1547.29 402.217 1547.29 388.556C1547.29 372.917 1537.81 360.582 1515.12 360.582H1492.61C1489.58 360.582 1487.12 363.038 1487.12 366.072V410.825C1487.12 413.858 1489.58 416.314 1492.61 416.314H1515.12Z" fill="#E19624"/>
</svg>
